<?xml version="1.0" encoding="utf-8"?>
<svg viewBox="0 0 237 308" width="0px" xmlns="http://www.w3.org/2000/svg">
  <defs>
    <path id="path-0" d="M 147.042 129.739 C 177.576 149.483 198.313 155.61 219.382 162.767 C 227.411 164.767 230.629 166.283 235.241 169.197 C 240.198 172.394 243.501 175.597 247.143 179.239 C 251.387 182.526 254.695 182.804 257.889 183.151 C 264.535 183.348 271.008 183.598 277.078 184.462 C 287.522 184.564 296.114 186.331 304.634 186.758 C 314.101 186.758 318.373 185.808 324.162 183.082 C 327.656 180.183 330.497 180.002 334.187 179.764 C 339.581 180.119 344.435 180.745 349.009 182.054 C 355.567 184.073 360.221 186.087 364.953 189.63 C 367.56 192.596 367.5 195.291 367.875 198.41 C 369.324 202.712 372.312 205.608 373.919 208.988 C 375.565 212.779 377.778 213.582 381.054 214.517 C 386.234 214.741 389.496 214.296 392.97 214.06 C 396.164 213.104 397.82 211.382 400.361 211.217 C 404.795 211.217 408.502 211.005 412.125 210.512 C 416.427 208.518 420.529 208.359 423.306 205.082 C 426.26 203.055 429.235 202.619 429.235 199.514 C 428.655 193.891 428.318 189.428 428.798 184.517 C 429.637 180.265 430.118 177.095 429.924 173.046 C 429.014 167.58 428.766 163.734 428.766 159.591 C 429.463 153.736 432.528 151.781 435.019 153.454 C 439.512 161.63 442.969 167.516 444.517 175.299 C 448.203 180.39 452.938 182.846 455.793 187.707 C 459.142 194.456 461.123 199.068 460.853 205.021 C 453.461 214.944 442.334 220.039 434.667 228.384 C 429.847 235.033 427.294 238.227 424.842 241.246 C 422.131 244.453 419.1 246.155 417.797 249.338 C 416.525 258.587 416.93 267.017 417.234 275.058 C 412.022 280.179 397.612 274.216 393.08 270.244 C 386.486 262.322 381.642 254.03 374.004 248.931 C 359.884 241.268 352.235 238.939 338.995 237.374 C 312.935 236.279 292.923 235.446 272.827 235.446 C 242.86 234.743 223.488 234.944 204.117 234.519 C 189.863 233.206 179.008 232.746 168.68 228.315 C 157.037 220.741 147.361 221.865 135.317 221.865 C 130.25 221.734 129.237 222.55 127.335 218.606 C 123.213 192.44 121.02 171.084 121.267 147.912 C 125.669 134.216 135.378 131.8 138.136 124.016 C 141.714 115.221 131.096 116.221 125.628 114.902 C 113.519 112.901 103.628 110.356 94.183 107.207 L 93.911 107.168 C 93.771 107.12 93.632 107.074 93.492 107.026" style="fill: none;"/>
    <path id="path-1" d="M 136.577 134.354 C 133.755 136.621 132.596 137.582 131.525 138.8 C 130.162 139.999 128.966 141.655 128.223 143.127 C 127.176 144.807 126.298 146.078 125.508 147.449 C 124.391 149.647 123.975 151.031 123.645 152.615 C 122.933 154.985 122.375 156.783 121.334 158.577 C 120.763 160.417 120.205 161.718 119.928 163.169 C 119.493 166.157 119.311 168.447 119.026 170.776 C 118.323 173.099 117.955 174.796 117.825 176.716 C 117.79 179.103 117.583 180.96 117.749 182.785 C 118.019 185.326 118.056 187.149 118.587 189.026 C 119.49 192.025 120.682 192.661 122.338 193.285 C 128.416 193.803 133.204 193.504 138.014 192.934 C 146.713 192.121 153.098 192.074 159.207 192.452 C 165.259 192.978 170.779 193.762 176.169 195.11 C 183.174 197.73 188.231 197.916 194.738 196.978 C 204.054 193.399 208.545 187.742 215.243 185.454 C 232.85 171.674 246.368 172.547 265.81 172.113 C 287.628 172.835 298.823 177.372 314.085 189.396 C 321.386 197.004 324.809 202.947 327.454 210.388 C 327.454 217.61 327.908 223.01 324.185 228.774 C 320.844 234.475 319.439 239.868 318.094 245.694 C 315.681 257.759 315.033 263.66 307.212 268.084 C 289.728 275.369 278.393 276.549 263.371 276.903 C 234.726 277.245 209.739 276.246 184.015 273.485 C 155.08 266.669 131.135 261.448 107.436 255.245 C 88.676 248.642 65.32 243.678 58.222 233.983 C 51.029 223.578 49.329 214.292 48.08 204.755 C 46.918 187.292 48.754 171.451 50.484 155.378 C 55.7 138.558 64.775 132.5 76.16 123.951 L 78.005 123.092 C 86.17 119.458 94.292 117.003 102.89 114.656" style="fill: none;"/>
    <path id="path-2" d="M 308.188 311.628 C 300.119 318.331 293.761 320.448 287.97 323.788 C 281.398 328.252 274.507 329.365 267.407 330.891 C 259.588 332.892 253.174 334.274 246.111 334.274 C 239.631 334.507 233.997 334.473 228.382 334.473 C 220.542 334.1 215.002 333.994 209.571 333.994 C 205.813 333.945 203.321 333.304 200.851 333.209 C 193.517 332.229 187.789 330.668 181.875 328.787 C 178.21 327.35 175.651 326.793 173.137 325.308 C 168.374 323.16 164.949 320.267 161.682 317.934 C 155.994 313.82 150.746 310.615 145.963 306.859 C 141.133 302.119 138.302 297.624 135.281 292.593 C 131.892 286.001 130.263 282.214 128.579 278.436 C 125.99 272.27 124.689 267.455 124.508 262.926 C 122.567 257.257 120.859 252.672 118.997 248.167 C 117.821 244.188 116.628 241.046 115.221 238.025 C 114.009 232.358 113.864 227.589 113.992 222.322 C 113.959 216.543 113.669 211.318 113.976 205.923 C 114.27 200.344 114.305 197.175 114.305 193.798 L 114.305 192.788 C 114.3 189.422 115.571 185.215 112.935 183.102" style="fill: none;"/>
    <path id="path-3" d="M 137.437 134.275 C 142.131 133.288 144.672 133.5 146.99 133.5 C 151.118 133.322 154.204 133.446 157.366 133.681 C 160.979 133.889 164.08 134.269 167.238 134.714 C 170.611 135.296 173.416 136.438 175.659 137.711 C 178.495 139.98 179.716 140.859 180.581 143.454 C 181.42 146.194 182.612 148.548 182.916 151.017 C 183.062 155.691 182.329 158.261 181.062 161.704 C 179.701 164.98 178.283 166.747 177.124 168.754 C 174.909 172.403 173.447 174.471 172.863 177.376 C 171.946 180.781 171.534 183.713 170.648 186.575 C 169.505 190.441 168.78 193.15 168.4 195.95 C 167.741 198.658 167.478 200.674 167.124 202.704 C 167.049 205.611 166.458 208.429 166.004 210.847 C 165.506 216.755 166.269 221.381 166.638 226.017 C 167.245 232.19 167.822 233.861 169.737 237.031 C 173.61 241.635 176.995 244.732 179.859 249.22 C 183.017 253.355 187.659 255.982 190.788 259.374 C 193.89 263.006 197.687 264.177 201.156 265.694 C 206.656 267.366 211.059 268.295 216.084 268.606 C 225.14 268.827 233.065 268.714 241.111 268.391 C 250.65 266.159 257.732 264.418 264.743 262.469 C 274.908 258.214 276.615 255.719 278.876 249.829 C 281.265 244.234 281.734 238.976 283.365 233.826 C 286.124 228.127 289.671 224.897 293.819 221.365 C 298.507 220.237 303.76 218.131 306.253 214.942 C 309.556 210.758 316.567 213.903 320.098 214.59 C 332.364 216.354 340.049 220.088 348.456 224.552 L 352.021 225.85 C 352.508 226.012 354.805 226.35 354.902 226.368" style="fill: none;"/>
    <path id="path-4" d="M 181.078 150.686 C 185.273 147.789 186.987 146.841 188.74 145.864 C 191.535 144.215 193.309 143.565 194.923 142.633 C 197.802 141.306 200.157 140.622 202.558 139.723 C 205.558 138.753 207.691 137.315 210.156 136.819 C 213.396 136.006 215.813 135.118 218.372 134.746 C 222.013 134.311 225.115 134.372 228.185 134.372 C 231.719 134.535 234.7 134.63 237.649 134.63 C 242.157 134.904 244.709 135.031 247.269 135.724 C 250.58 136.824 253.746 137.396 256.808 137.79 C 260.911 138.792 264.717 139.85 267.901 141.29 C 271.91 142.92 274.634 144.547 277.503 145.976 C 280.694 147.626 282.403 148.685 284.046 150.328 C 286.443 152.462 288.596 154.165 290.581 156.15 C 293.121 158.888 294.666 160.495 295.934 162.277 C 296.987 165.411 297.663 167.667 298.247 169.928 C 298.845 172.371 299.483 174.108 299.732 176.016 C 300.167 178.57 300.711 180.709 301.177 182.873 C 301.954 186.556 302.715 189.396 303.918 191.975 C 305.232 195.092 305.739 197.548 306.308 200.022 C 307.206 203.143 308.073 205.543 308.755 208.035 C 309.26 210.65 309.645 212.831 310 215.017 L 310.108 215.625 C 310.501 216.759 311.919 217.411 312.152 218.589" style="fill: none;"/>
    <path id="text-path-0" d="M 193.328125 131.4701100708502 Q 266.078125 98 338.828125 131.4701100708502"/>
    <linearGradient id="gradient-1" gradientUnits="userSpaceOnUse" x1="621.401" y1="245.174" x2="621.401" y2="458.827" gradientTransform="matrix(1, 0, 0, 1, -405.027649, -152.395905)">
      <stop offset="0" style="stop-color: rgb(217, 52, 135);"/>
      <stop offset="1" style="stop-color: rgb(228, 111, 101);"/>
    </linearGradient>
    <pattern id="pattern-0" x="0" y="0" width="25" height="25" patternUnits="userSpaceOnUse" viewBox="0 0 100 100">
      <rect x="0" y="0" width="50" height="100" style="fill: black;"/>
    </pattern>
    <linearGradient id="gradient-3" gradientUnits="userSpaceOnUse" x1="521.091" y1="153.74" x2="521.091" y2="345.395" gradientTransform="matrix(0.490505, -0.871438, 1.341177, 0.754906, -448.538239, 329.32695)">
      <stop offset="0" style="stop-color: rgb(190, 47, 138);"/>
      <stop offset="1" style="stop-color: rgb(52, 17, 61);"/>
    </linearGradient>
  </defs>
  <path d="M 118.82 192.999 C 53.939 192.999 1.343 140.403 1.343 75.522 C 1.343 47.391 11.23 21.57 27.719 1.344 L 61.817 19.79 C 47.762 34.163 39.099 53.831 39.099 75.522 C 39.099 119.551 74.791 155.243 118.82 155.243 C 156.936 155.243 188.803 128.495 196.676 92.745 L 230.783 111.196 C 215.681 158.635 171.264 192.999 118.82 192.999 Z" style="fill: url(#gradient-3);"/>
  <path d="M 196.696 92.778 L 196.698 92.778 L 236.051 114.067 L 236.051 306.431 L 196.696 285.142 Z" style="fill: url(#gradient-1);"/>
  <path d="M 188.308 104.177 C 188.308 103.284 188.351 102.49 188.438 101.797 C 188.531 101.11 188.691 100.514 188.918 100.007 C 189.145 99.494 189.451 99.067 189.838 98.727 C 190.225 98.387 190.711 98.114 191.298 97.907 C 191.885 97.694 192.585 97.544 193.398 97.457 C 194.205 97.364 195.148 97.317 196.228 97.317 C 197.661 97.317 198.841 97.407 199.768 97.587 C 200.701 97.76 201.438 98.027 201.978 98.387 C 202.511 98.754 202.885 99.217 203.098 99.777 C 203.305 100.33 203.408 100.994 203.408 101.767 L 201.258 101.767 C 201.258 101.487 201.248 101.227 201.228 100.987 C 201.215 100.747 201.161 100.53 201.068 100.337 C 200.975 100.144 200.828 99.97 200.628 99.817 C 200.421 99.664 200.131 99.534 199.758 99.427 C 199.385 99.327 198.911 99.25 198.338 99.197 C 197.765 99.144 197.061 99.117 196.228 99.117 C 195.268 99.117 194.461 99.15 193.808 99.217 C 193.148 99.284 192.605 99.394 192.178 99.547 C 191.751 99.7 191.421 99.907 191.188 100.167 C 190.961 100.427 190.795 100.744 190.688 101.117 C 190.581 101.49 190.518 101.93 190.498 102.437 C 190.485 102.944 190.478 103.524 190.478 104.177 C 190.478 104.824 190.485 105.397 190.498 105.897 C 190.518 106.39 190.581 106.824 190.688 107.197 C 190.795 107.564 190.961 107.877 191.188 108.137 C 191.421 108.39 191.751 108.594 192.178 108.747 C 192.605 108.907 193.148 109.02 193.808 109.087 C 194.461 109.154 195.268 109.187 196.228 109.187 C 197.061 109.187 197.765 109.157 198.338 109.097 C 198.911 109.037 199.385 108.95 199.758 108.837 C 200.131 108.73 200.421 108.594 200.628 108.427 C 200.828 108.26 200.975 108.07 201.068 107.857 C 201.161 107.644 201.215 107.407 201.228 107.147 C 201.248 106.894 201.258 106.617 201.258 106.317 L 203.408 106.317 C 203.408 107.104 203.305 107.784 203.098 108.357 C 202.885 108.937 202.511 109.41 201.978 109.777 C 201.438 110.15 200.701 110.427 199.768 110.607 C 198.841 110.787 197.661 110.877 196.228 110.877 C 195.148 110.877 194.205 110.83 193.398 110.737 C 192.585 110.65 191.885 110.504 191.298 110.297 C 190.711 110.09 190.225 109.817 189.838 109.477 C 189.451 109.144 189.145 108.73 188.918 108.237 C 188.691 107.744 188.531 107.16 188.438 106.487 C 188.351 105.82 188.308 105.05 188.308 104.177 ZM 205.929 104.067 C 205.929 102.74 206.069 101.644 206.349 100.777 C 206.635 99.91 207.095 99.22 207.729 98.707 C 208.355 98.2 209.169 97.844 210.169 97.637 C 211.175 97.43 212.395 97.327 213.829 97.327 C 215.269 97.327 216.492 97.43 217.499 97.637 C 218.499 97.844 219.312 98.2 219.939 98.707 C 220.572 99.22 221.029 99.91 221.309 100.777 C 221.595 101.644 221.739 102.74 221.739 104.067 C 221.739 105.394 221.595 106.494 221.309 107.367 C 221.029 108.247 220.572 108.944 219.939 109.457 C 219.312 109.977 218.499 110.344 217.499 110.557 C 216.492 110.77 215.269 110.877 213.829 110.877 C 212.395 110.877 211.175 110.77 210.169 110.557 C 209.169 110.344 208.355 109.977 207.729 109.457 C 207.095 108.944 206.635 108.247 206.349 107.367 C 206.069 106.494 205.929 105.394 205.929 104.067 Z M 208.079 104.067 C 208.079 104.787 208.105 105.414 208.159 105.947 C 208.212 106.474 208.312 106.93 208.459 107.317 C 208.605 107.697 208.809 108.007 209.069 108.247 C 209.335 108.487 209.682 108.677 210.109 108.817 C 210.535 108.964 211.052 109.06 211.659 109.107 C 212.272 109.16 212.995 109.187 213.829 109.187 C 214.549 109.187 215.192 109.17 215.759 109.137 C 216.325 109.104 216.819 109.027 217.239 108.907 C 217.665 108.787 218.029 108.617 218.329 108.397 C 218.629 108.177 218.869 107.877 219.049 107.497 C 219.235 107.11 219.372 106.64 219.459 106.087 C 219.539 105.527 219.579 104.854 219.579 104.067 C 219.579 103.294 219.539 102.637 219.459 102.097 C 219.372 101.557 219.235 101.104 219.049 100.737 C 218.869 100.37 218.629 100.08 218.329 99.867 C 218.029 99.654 217.665 99.49 217.239 99.377 C 216.819 99.27 216.325 99.2 215.759 99.167 C 215.192 99.14 214.549 99.127 213.829 99.127 C 213.115 99.127 212.475 99.14 211.909 99.167 C 211.342 99.2 210.849 99.27 210.429 99.377 C 210.002 99.49 209.639 99.654 209.339 99.867 C 209.039 100.08 208.799 100.37 208.619 100.737 C 208.432 101.104 208.295 101.557 208.209 102.097 C 208.122 102.637 208.079 103.294 208.079 104.067 ZM 237.907 102.607 L 237.907 110.627 L 235.757 110.627 L 235.757 103.327 C 235.757 102.547 235.707 101.89 235.607 101.357 C 235.501 100.824 235.294 100.39 234.987 100.057 C 234.674 99.73 234.234 99.494 233.667 99.347 C 233.107 99.2 232.367 99.127 231.447 99.127 C 230.434 99.127 229.601 99.21 228.947 99.377 C 228.294 99.55 227.781 99.787 227.407 100.087 C 227.034 100.394 226.774 100.76 226.627 101.187 C 226.481 101.614 226.407 102.087 226.407 102.607 L 226.407 110.627 L 224.257 110.627 L 224.257 97.687 L 226.407 97.687 L 226.407 99.737 C 226.414 99.71 226.447 99.634 226.507 99.507 C 226.567 99.38 226.674 99.23 226.827 99.057 C 226.987 98.877 227.197 98.687 227.457 98.487 C 227.724 98.287 228.071 98.1 228.497 97.927 C 228.917 97.754 229.427 97.61 230.027 97.497 C 230.627 97.384 231.337 97.327 232.157 97.327 C 232.971 97.327 233.674 97.377 234.267 97.477 C 234.861 97.584 235.371 97.734 235.797 97.927 C 236.217 98.127 236.561 98.377 236.827 98.677 C 237.094 98.97 237.304 99.307 237.457 99.687 C 237.591 99.487 237.791 99.25 238.057 98.977 C 238.324 98.71 238.701 98.454 239.187 98.207 C 239.667 97.96 240.271 97.754 240.997 97.587 C 241.724 97.414 242.611 97.327 243.657 97.327 C 244.524 97.327 245.264 97.387 245.877 97.507 C 246.497 97.62 247.021 97.79 247.447 98.017 C 247.874 98.25 248.217 98.534 248.477 98.867 C 248.731 99.207 248.927 99.6 249.067 100.047 C 249.207 100.487 249.301 100.984 249.347 101.537 C 249.387 102.084 249.407 102.68 249.407 103.327 L 249.407 110.627 L 247.257 110.627 L 247.257 103.327 C 247.257 102.547 247.207 101.89 247.107 101.357 C 247.001 100.824 246.794 100.39 246.487 100.057 C 246.174 99.73 245.734 99.494 245.167 99.347 C 244.607 99.2 243.867 99.127 242.947 99.127 C 241.934 99.127 241.101 99.21 240.447 99.377 C 239.794 99.55 239.281 99.787 238.907 100.087 C 238.534 100.394 238.274 100.76 238.127 101.187 C 237.981 101.614 237.907 102.087 237.907 102.607 ZM 260.188 97.327 C 261.628 97.327 262.848 97.437 263.848 97.657 C 264.855 97.87 265.672 98.24 266.298 98.767 C 266.932 99.294 267.388 99.997 267.668 100.877 C 267.955 101.757 268.098 102.857 268.098 104.177 C 268.098 105.484 267.955 106.567 267.668 107.427 C 267.388 108.287 266.932 108.97 266.298 109.477 C 265.672 109.99 264.855 110.35 263.848 110.557 C 262.848 110.77 261.628 110.877 260.188 110.877 C 259.168 110.877 258.312 110.82 257.618 110.707 C 256.932 110.594 256.368 110.454 255.928 110.287 C 255.488 110.114 255.155 109.93 254.928 109.737 C 254.702 109.544 254.538 109.36 254.438 109.187 L 254.438 114.937 L 252.288 114.937 L 252.288 97.687 L 254.438 97.687 L 254.438 98.887 C 254.538 98.74 254.702 98.574 254.928 98.387 C 255.155 98.207 255.488 98.037 255.928 97.877 C 256.368 97.724 256.932 97.594 257.618 97.487 C 258.312 97.38 259.168 97.327 260.188 97.327 Z M 260.188 99.127 C 259.475 99.127 258.835 99.147 258.268 99.187 C 257.708 99.22 257.215 99.297 256.788 99.417 C 256.362 99.53 256.002 99.697 255.708 99.917 C 255.408 100.137 255.165 100.434 254.978 100.807 C 254.792 101.174 254.655 101.63 254.568 102.177 C 254.482 102.724 254.438 103.38 254.438 104.147 C 254.438 104.92 254.482 105.584 254.568 106.137 C 254.655 106.69 254.792 107.15 254.978 107.517 C 255.165 107.89 255.408 108.187 255.708 108.407 C 256.002 108.627 256.362 108.797 256.788 108.917 C 257.215 109.03 257.708 109.104 258.268 109.137 C 258.835 109.17 259.475 109.187 260.188 109.187 C 261.028 109.187 261.755 109.16 262.368 109.107 C 262.975 109.06 263.492 108.967 263.918 108.827 C 264.345 108.694 264.692 108.507 264.958 108.267 C 265.225 108.027 265.432 107.724 265.578 107.357 C 265.725 106.984 265.822 106.537 265.868 106.017 C 265.915 105.497 265.938 104.884 265.938 104.177 C 265.938 103.477 265.915 102.864 265.868 102.337 C 265.822 101.817 265.725 101.367 265.578 100.987 C 265.432 100.614 265.225 100.307 264.958 100.067 C 264.692 99.827 264.345 99.637 263.918 99.497 C 263.492 99.357 262.975 99.26 262.368 99.207 C 261.755 99.154 261.028 99.127 260.188 99.127 ZM 271.336 110.627 L 271.336 93.377 L 273.486 93.377 L 273.486 110.627 L 271.336 110.627 ZM 276.365 97.687 L 283.195 110.627 L 283.915 110.627 C 283.795 110.867 283.688 111.097 283.595 111.317 C 283.502 111.53 283.385 111.73 283.245 111.917 C 283.112 112.104 282.945 112.274 282.745 112.427 C 282.538 112.574 282.268 112.7 281.935 112.807 C 281.602 112.92 281.188 113.004 280.695 113.057 C 280.202 113.117 279.595 113.147 278.875 113.147 L 278.875 114.937 C 279.715 114.937 280.442 114.897 281.055 114.817 C 281.668 114.744 282.198 114.634 282.645 114.487 C 283.092 114.34 283.468 114.16 283.775 113.947 C 284.082 113.74 284.348 113.504 284.575 113.237 C 284.802 112.97 285.002 112.68 285.175 112.367 C 285.348 112.047 285.525 111.707 285.705 111.347 L 286.065 110.627 L 292.535 97.687 L 290.025 97.687 L 284.625 109.187 L 278.875 97.687 L 276.365 97.687 Z" transform="matrix(0, -1, 1, 0, 112.79874420166016, 466.0455322265625)" style="fill: rgb(27, 24, 21); white-space: pre;"/>
</svg>